<svg width="86" height="40" fill="none" xmlns="http://www.w3.org/2000/svg"><path d="M44.268 21.829v6.257l-2.911 4.086h-.628V21.829c-.114-2.286-1.199-3.572-3.568-3.572-.114 0-.257 0-.37.029a5.308 5.308 0 00-.771.143c-1.142.343-1.941 1.028-2.769 1.943v11.743h-3.568V6.886l2.911-4.029h.685v14l.172.172c.742-.743 1.77-1.943 4.081-1.943 4.253 0 6.736 2.857 6.736 6.743zM15.84 20.457h-3.51L10.846 25.8 7.992 15.43H4.48l4.624 16.743h3.51l3.226-11.715zm7.878-5.028L20.835 25.8l-1.455-5.343h-3.54l3.254 11.715h3.51l4.625-16.743h-3.511zm50.176 13.886c-3.025 0-4.795-2.143-4.795-4.629h9.305l2.768-3.857c-1.027-3.543-3.995-5.743-7.42-5.743-4.624 0-8.163 3.571-8.163 8.714 0 5.172 3.739 8.715 8.163 8.715 3.368 0 5.85-1.772 7.278-4.258l-2.997-1.428c-.543 1.428-1.998 2.486-4.139 2.486zm-.171-11.029c2.14 0 3.91 1.429 4.082 3.286H69.27c.543-1.857 1.97-3.286 4.453-3.286zm-23.747-2.829a3.57 3.57 0 003.568-3.571 3.57 3.57 0 00-3.568-3.571 3.57 3.57 0 00-3.567 3.571 3.57 3.57 0 003.567 3.571zm11.988 18.429c-.8-.171-1.342-.829-1.342-1.743V18.63h3.597v-3.2h-3.597V8.315h-.685l-2.797 3.914v6.428h-6.108L48.235 22.6v9.572h3.482V21.886h5.423v10.286c0 3.2 1.913 4.971 5.48 4.971l1.941-2.714-2.597-.543z" fill="#060606"/></svg>